<svg xmlns="http://www.w3.org/2000/svg" viewBox="0 0 666.67 633.33"><defs><style>.cls-1{fill:#fff;}.cls-2{fill:none;stroke:#000;stroke-linecap:round;stroke-linejoin:round;stroke-width:66.67px;}</style></defs><g id="Слой_2" data-name="Слой 2"><g id="Слой_1-2" data-name="Слой 1"><rect class="cls-1" x="373.42" y="33.33" width="193.2" height="82.32"/><rect class="cls-1" x="53.25" y="133.33" width="557.62" height="466.67"/><path class="cls-2" d="M166.67,133.33V600m400-466.67c0-31.06,0-46.59-5.08-58.84a66.6,66.6,0,0,0-36.08-36.08c-12.25-5.08-27.78-5.08-58.84-5.08s-46.6,0-58.85,5.08a66.66,66.66,0,0,0-36.08,36.08c-5.07,12.25-5.07,27.78-5.07,58.84M500,366.67a100,100,0,1,1-100-100A100,100,0,0,1,500,366.67ZM140,600H526.67c37.33,0,56,0,70.26-7.27a66.64,66.64,0,0,0,29.14-29.13c7.26-14.26,7.26-32.93,7.26-70.27V240c0-37.34,0-56-7.26-70.27a66.64,66.64,0,0,0-29.14-29.13c-14.26-7.27-32.93-7.27-70.26-7.27H140c-37.34,0-56,0-70.27,7.27A66.67,66.67,0,0,0,40.6,169.73C33.33,184,33.33,202.66,33.33,240V493.33c0,37.34,0,56,7.27,70.27a66.67,66.67,0,0,0,29.13,29.13C84,600,102.66,600,140,600Z"/></g></g></svg>