<svg xmlns="http://www.w3.org/2000/svg" viewBox="0 0 800 586.2"><defs><style>.cls-1{fill:#fff;}</style></defs><g id="Слой_2" data-name="Слой 2"><g id="Layer_1" data-name="Layer 1"><path class="cls-1" d="M25.1,15.4,12.7,49.1V541.4s0,30.6,58.2,29.6,302.3,0,302.3,0H740.9s43.9,14.2,44.9-64.9,0-445.7,0-445.7S803.2,9.3,714.3,9.3H53.4Z"/><path d="M747.4,0H52.6A52.66,52.66,0,0,0,0,52.6v481a52.66,52.66,0,0,0,52.6,52.6H747.4A52.66,52.66,0,0,0,800,533.6V52.6A52.66,52.66,0,0,0,747.4,0ZM187.1,561.1H52.7a27.66,27.66,0,0,1-27.6-27.6V52.5A27.66,27.66,0,0,1,52.7,24.9H187.1V561.1ZM775,533.6a27.66,27.66,0,0,1-27.6,27.6H212.1V25H747.4A27.66,27.66,0,0,1,775,52.6v481Z"/><path d="M306.5,53.4H253.1a12.5,12.5,0,1,0,0,25h53.4a12.5,12.5,0,0,0,0-25Z"/><path d="M146.2,53.4H66a12.5,12.5,0,0,0,0,25h80.2a12.5,12.5,0,0,0,0-25Z"/><path d="M146.2,187H66a12.5,12.5,0,0,0,0,25h80.2a12.5,12.5,0,0,0,0-25Z"/><path d="M146.2,293.9H66a12.5,12.5,0,0,0,0,25h80.2a12.5,12.5,0,0,0,0-25Z"/><path d="M146.2,400.8H66a12.5,12.5,0,0,0,0,25h80.2a12.5,12.5,0,0,0,0-25Z"/><path d="M146.2,240.5H66a12.5,12.5,0,0,0,0,25h80.2a12.5,12.5,0,0,0,0-25Z"/><path d="M146.2,347.4H66a12.5,12.5,0,0,0,0,25h80.2a12.5,12.5,0,0,0,0-25Z"/><path d="M119.4,481H66a12.5,12.5,0,0,0,0,25h53.4a12.5,12.5,0,0,0,0-25Z"/><path d="M119.4,106.9H66a12.5,12.5,0,0,0,0,25h53.4a12.5,12.5,0,0,0,0-25Z"/><path d="M413.4,53.4H360a12.5,12.5,0,1,0,0,25h53.4a12.5,12.5,0,0,0,0-25Z"/><path d="M520.3,53.4H466.9a12.5,12.5,0,1,0,0,25h53.4a12.5,12.5,0,0,0,0-25Z"/><path d="M627.2,53.4H573.8a12.5,12.5,0,1,0,0,25h53.4a12.5,12.5,0,0,0,0-25Z"/><path d="M734,53.4H680.6a12.5,12.5,0,1,0,0,25H734a12.5,12.5,0,0,0,12.5-12.5A12.38,12.38,0,0,0,734,53.4Z"/><path d="M394.2,336.5a12.47,12.47,0,0,0-17.5,2.5,54.23,54.23,0,1,1,.1-65.2,12.5,12.5,0,0,0,20-15,79.25,79.25,0,1,0,0,95.1A12.57,12.57,0,0,0,394.2,336.5Z"/><path d="M517.7,331.2a52.61,52.61,0,0,0-10.8-104.1H440.1a12.5,12.5,0,0,0-12.5,12.5V373.2a12.5,12.5,0,0,0,25,0V332.3h34.7l36.3,48.4a12.45,12.45,0,0,0,10,5,12.3,12.3,0,0,0,7.5-2.5,12.48,12.48,0,0,0,2.5-17.5Zm-65.1-23.9V252.2h54.3a27.6,27.6,0,1,1,0,55.2l-54.3-.1Z"/><path d="M733.1,372,719.7,238.4A12.73,12.73,0,0,0,709,227.2a12.59,12.59,0,0,0-13.4,7.8L653.8,339.5,612,235a12.51,12.51,0,0,0-24.1,3.4L574.5,372a12.51,12.51,0,1,0,24.9,2.5l8.3-82.7,34.4,86.1a12.47,12.47,0,0,0,23.2,0l34.4-86.1,8.3,82.7a12.47,12.47,0,0,0,12.4,11.3,6.15,6.15,0,0,0,1.3-.1A12.5,12.5,0,0,0,733.1,372Z"/></g></g></svg>