<?xml version="1.0" encoding="utf-8"?>
<!-- Generator: Adobe Illustrator 26.0.3, SVG Export Plug-In . SVG Version: 6.00 Build 0)  -->
<svg version="1.1" id="_x32_" xmlns="http://www.w3.org/2000/svg" xmlns:xlink="http://www.w3.org/1999/xlink" x="0px" y="0px"
	 viewBox="0 0 800 800" style="enable-background:new 0 0 800 800;" xml:space="preserve">
<style type="text/css">
	.st0{fill:#FFFFFF;}
</style>
<g>
	<path class="st0" d="M554.7,181.1c35,0,63.4-28.4,63.4-63.5c0-35-28.4-63.5-63.4-63.5c-35.1,0-63.5,28.4-63.5,63.5
		S519.7,181.1,554.7,181.1z"/>
	<path class="st0" d="M795.9,363.2l-42.1-63.3c-10.2-15-23.8-27.3-39.6-36.2l-82.5-46.2c-15.1-7.1-26.6-11.6-40.9-9.6l-39.5,5.4
		c-14.7,2-28.1,9.5-37.6,21l-75.2,80l-68.8,25.4c-13,4.8-20,19-15.9,32.2l0.3,1c4.1,13.1,17.5,20.8,30.8,17.7l56.1-12.9
		c14-3.2,27.3-9,39.2-17l39-26.2l13.8,104.7c1,7.7-0.5,15.5-4.4,22.2L411.9,664.2c-8.3,14.4-3.4,32.9,11,41.3l1,0.6
		c13.6,7.9,31.1,4.1,40.1-8.8l130.6-186.8l39.6,79c2.9,5.8,6.8,11.1,11.5,15.7l87.8,85.8c11.1,10.8,28.6,11.3,40.2,1.1l1.4-1.2
		c6-5.2,9.6-12.6,10.1-20.5c0.5-7.9-2.2-15.7-7.5-21.6l-74.1-82.5l-40.3-145.7l-0.1,0.1l-11.6-114l40.8,18.4l65.2,68.7
		c8.2,8.7,21.5,10,31.3,3.3l0.7-0.5C800.4,389.1,803.3,374.2,795.9,363.2z"/>
	<polygon class="st0" points="201.8,157.9 67.6,66.3 410.5,66.3 410.5,14 0,14 0,694.4 67.6,694.4 201.8,786 201.8,759.9 
		201.8,694.4 365.3,694.4 365.3,642.1 201.8,642.1 	"/>
</g>
</svg>
