<?xml version="1.0" encoding="utf-8"?>
<!-- Generator: Adobe Illustrator 26.0.3, SVG Export Plug-In . SVG Version: 6.00 Build 0)  -->
<svg version="1.1" id="Слой_1" xmlns="http://www.w3.org/2000/svg" xmlns:xlink="http://www.w3.org/1999/xlink" x="0px" y="0px"
	 viewBox="0 0 800 800" style="enable-background:new 0 0 800 800;" xml:space="preserve">
<style type="text/css">
	.st0{fill:#FFFFFF;}
	.st1{fill:none;stroke:#000000;stroke-width:48;stroke-linecap:round;stroke-linejoin:round;stroke-miterlimit:128;}
</style>
<polygon class="st0" points="80.2,323.8 150.5,215.9 623.1,206.1 704.9,269.9 714.8,371.6 684.6,603.4 628.4,696.7 513,714.2 
	224.8,710.9 131.5,646 91.2,509.8 "/>
<polygon class="st0" points="291.4,193.3 272.3,152.4 356.5,73 438.5,73 513.3,133.1 523.2,202.2 "/>
<path class="st1" d="M720,330.2c0-33.9-13.5-66.5-37.5-90.5c-24-24-56.6-37.5-90.5-37.5H208c-33.9,0-66.5,13.5-90.5,37.5
	c-24,24-37.5,56.6-37.5,90.5"/>
<path class="st1" d="M720,330.2c-194.9,192-445.1,192-640,0"/>
<path class="st1" d="M720,330.2l-32,256c-4.8,34.8-21.8,66.8-48,90.3c-26.2,23.4-59.9,36.8-95,37.7H252.5
	c-35.2-0.9-68.8-14.3-95.1-37.7c-26.2-23.4-43.2-55.5-48-90.3l-32-256"/>
<path class="st1" d="M272.3,193.3c0-33.9,13.5-66.5,37.5-90.5c24-24,56.6-37.5,90.5-37.5c33.9,0,66.5,13.5,90.5,37.5
	c24,24,37.5,56.6,37.5,90.5"/>
</svg>
