<?xml version="1.0" encoding="utf-8"?>
<!-- Generator: Adobe Illustrator 26.0.3, SVG Export Plug-In . SVG Version: 6.00 Build 0)  -->
<svg version="1.1" id="Слой_1" xmlns="http://www.w3.org/2000/svg" xmlns:xlink="http://www.w3.org/1999/xlink" x="0px" y="0px"
	 viewBox="0 0 800 800" style="enable-background:new 0 0 800 800;" xml:space="preserve">
<style type="text/css">
	.st0{fill:#FFFFFF;stroke:#000000;stroke-miterlimit:10;}
	.st1{fill:none;stroke:#000000;stroke-width:50;stroke-linecap:round;stroke-linejoin:round;stroke-miterlimit:133.3333;}
</style>
<rect x="566.7" y="366.7" class="st0" width="100" height="287.2"/>
<rect x="366.7" y="133.3" class="st0" width="100" height="520.6"/>
<rect x="172" y="266.7" class="st0" width="94.7" height="387.2"/>
<line class="st1" x1="66.7" y1="666.7" x2="733.3" y2="666.7"/>
<path class="st1" d="M166.7,666.7V273.3c0-3.7,3-6.7,6.7-6.7H260c3.7,0,6.7,3,6.7,6.7v393.3"/>
<path class="st1" d="M366.7,666.7V142.2c0-4.9,3-8.9,6.7-8.9H460c3.7,0,6.7,4,6.7,8.9v524.4"/>
<path class="st1" d="M566.7,666.7v-295c0-2.8,3-5,6.7-5H660c3.7,0,6.7,2.2,6.7,5v295"/>
</svg>
