<svg xmlns="http://www.w3.org/2000/svg"
     viewBox="0 0 15 15">
    <defs>
        <style>
            .cls-1{
            fill:none;
            stroke:#fff;
            stroke-opacity:0.5;
            }
            .cls-2{
            fill:#fff;
            fill-opacity:0.5;
            }
        </style>
    </defs>
    <g id="Слой_2"
       data-name="Слой 2">
        <g id="Слой_1-2"
           data-name="Слой 1">
            <circle class="cls-1"
                    cx="7.5"
                    cy="7.5"
                    r="7"/>
            <path class="cls-2"
                  d="M7.46,5.1h.08c.36,0,.54.17.54.52v5.85a.47.47,0,0,1-.54.53H7.46a.47.47,0,0,1-.53-.53V5.62A.46.46,0,0,1,7.46,5.1Zm-.73-2A.74.74,0,0,1,7,2.58a.69.69,0,0,1,.53-.24A.71.71,0,0,1,8,2.58a.71.71,0,0,1,.24.54.77.77,0,0,1-.22.55A.79.79,0,0,1,7,3.67.75.75,0,0,1,6.73,3.12Z"/>
        </g>
    </g>
</svg>