<svg xmlns="http://www.w3.org/2000/svg" viewBox="0 0 45.18 45.15"><defs><style>.cls-1{fill:#fff;}</style></defs><g id="Слой_2" data-name="Слой 2"><g id="Слой_1-2" data-name="Слой 1"><circle class="cls-1" cx="22.59" cy="22.57" r="21.24"/><g id="Слой_2-2" data-name="Слой 2"><g id="Слой_1-2-2" data-name="Слой 1-2"><path d="M22.59,0A22.33,22.33,0,0,1,45.17,22.08c0,.21,0,.41,0,.62A22.34,22.34,0,0,1,22.94,45.15h-.62A22.32,22.32,0,0,1,0,22.82v-.14A22.33,22.33,0,0,1,22,0ZM7.89,36.45l6.23-2.36c3.45-1.29,4.87-3.36,2.28-6.63-3.36-4.23-2.68-9.19-2.68-14,0-4.51,2.77-7.46,6.9-7.27,3.4.15,8.91,1.63,9.6,3.77a23,23,0,0,1-.14,14.43c-3.09,8-3.78,7.73,4.21,10.94,1,.41,2.09.76,3.05,1.1,7.92-8.7,7.6-20.85-.6-28.66A20.59,20.59,0,0,0,8,8.14C.15,16.08,0,28,7.89,36.45Z"/></g></g></g></g></svg>