<svg xmlns="http://www.w3.org/2000/svg" viewBox="0 0 800 657.74"><defs><style>.cls-1{fill:#fff;}</style></defs><g id="Слой_2" data-name="Слой 2"><g id="Capa_1" data-name="Capa 1"><rect class="cls-1" x="385.23" y="433.07" width="236.41" height="92.77" transform="translate(-191.57 496.41) rotate(-45)"/><rect class="cls-1" x="101.58" y="484.12" width="364.6" height="122.55"/><rect class="cls-1" x="429.41" y="218.33" width="119.49" height="104.95"/><rect class="cls-1" x="355.87" y="292.05" width="297.19" height="141.52"/><rect class="cls-1" x="499.87" y="170.08" width="265.02" height="203.74"/><rect class="cls-1" x="86.26" y="143.45" width="140.94" height="86.38"/><rect class="cls-1" x="54.09" y="55.19" width="225.19" height="122.55"/><path d="M765.72,132.06H514.3A34.27,34.27,0,0,0,490,142.15L324.52,308.31A103,103,0,0,0,322.83,452H148.6a102.85,102.85,0,0,0,0,205.7H445.73a34.19,34.19,0,0,0,20.71-7A35.76,35.76,0,0,0,470,647.7L711.35,406.33h54.37A34.28,34.28,0,0,0,800,372.05V166.34A34.28,34.28,0,0,0,765.72,132.06Zm-34.29,205.7H697.15a34.36,34.36,0,0,0-24.25,10L431.53,589.18H148.6a34.29,34.29,0,0,1,0-68.57H388.93a34.29,34.29,0,0,0,24.24-10.05l56.42-56.42.05,0,57.81-57.82h0A34.28,34.28,0,1,0,479,347.8l-57.72,57.72a34.28,34.28,0,0,1-48.19-48.78L528.54,200.62H731.43V337.76Z"/><path d="M143.68,287.91a34.28,34.28,0,0,0,32.66,0C231.82,257.86,272,223.58,295.78,186c28.1-44.38,26.78-82.16,20.73-106C304.57,32.89,264.08,0,218,0,197,0,177,7.05,160,20.05c-17-13-37-20-58-20C56,0,15.5,32.89,3.57,80c-6.06,23.88-7.38,61.67,20.7,106C48,223.58,88.21,257.85,143.68,287.91ZM70,96.83c4.7-18.55,19.65-28.26,32-28.26,13.55,0,23.1,11,28.73,20.22A34.27,34.27,0,0,0,160,105.23h0A34.28,34.28,0,0,0,189.28,88.8c5.63-9.23,15.19-20.23,28.76-20.23,12.34,0,27.3,9.7,32,28.25,7.39,29.15-13,75.48-90,121.51C83.05,172.31,62.64,126,70,96.83Z"/></g></g></svg>