<svg xmlns="http://www.w3.org/2000/svg"
     viewBox="0 0 716.68 650">
    <defs>
        <style>
            .cls-1{fill:#fff;}.cls-2{fill:none;stroke:#000;stroke-linecap:round;stroke-linejoin:round;stroke-width:50px;}
        </style>
    </defs>
    <g id="Слой_2"
       data-name="Слой 2">
        <g id="Слой_1-2"
           data-name="Слой 1">
            <path class="cls-1" d="M34.64,140.54V528.62s21.69,87.83,123.69,88.86,437.06,2.3,437.06,2.3,88.46,15.06,96.28-247.41S657.92,69.69,657.92,69.69L576,26.16H115.32L47.91,104.79Z"/><path class="cls-2" d="M225,291.67A66.67,66.67,0,1,0,158.33,225,66.67,66.67,0,0,0,225,291.67Z"/><path class="cls-2" d="M177,625C362.68,221.67,517,151,691.68,412.67"/><path class="cls-2" d="M558.33,25h-400A133.34,133.34,0,0,0,25,158.33V491.67A133.34,133.34,0,0,0,158.33,625h400A133.34,133.34,0,0,0,691.67,491.67V158.33A133.34,133.34,0,0,0,558.33,25Z"/></g></g></svg>