<svg xmlns="http://www.w3.org/2000/svg" viewBox="0 0 764.09 652.58"><defs><style>.cls-1,.cls-2{fill:#fff;}.cls-2,.cls-3,.cls-4{stroke:#000;}.cls-2{stroke-miterlimit:10;}.cls-3,.cls-4{fill:none;stroke-width:66.67px;}.cls-3{stroke-miterlimit:133.33;}.cls-4{stroke-linecap:round;stroke-linejoin:round;}.cls-5{fill-rule:evenodd;}</style></defs><g id="Слой_2" data-name="Слой 2"><g id="Слой_1-2" data-name="Слой 1"><path class="cls-1" d="M388.8,401.1C456.51,438.68,470.54,458,499,494.16l207.2-10.72L657.7,394.08S506,342,498.38,343.53,417.7,365,417.7,365l-38.3,9.36S321.09,363.53,388.8,401.1Z"/><path class="cls-2" d="M60.25,586.08c3.06-8.17,23.49-59.79,23.49-59.79l196.1-92.72L452.1,530.2,479,595.27,279.82,614.68Z"/><polygon class="cls-2" points="419.74 143.87 501.59 198.91 570.74 105.67 501.44 33.33 419.74 63.19 419.74 143.87"/><polygon class="cls-2" points="181.1 177.75 198.12 266.42 290.04 281.74 328.85 204.13 269.62 134.65 181.1 177.75"/><path class="cls-3" d="M338.13,216.67a83.33,83.33,0,1,1-83.33-83.34A83.33,83.33,0,0,1,338.13,216.67Z"/><path class="cls-3" d="M571.47,116.67a83.34,83.34,0,1,1-83.34-83.34A83.33,83.33,0,0,1,571.47,116.67Z"/><path class="cls-4" d="M488.13,600c-33.33,33.33-416.66,16.67-450,0S151.8,433.33,271.47,433.33,507.33,580.8,488.13,600Z"/><path class="cls-5" d="M483.21,476.35a620.14,620.14,0,0,1,53.91,67.47c17,.1,38.09.09,60.06-.24,25.77-.38,53.12-1.21,76.56-2.87,11.7-.83,22.82-1.89,32.47-3.27,9-1.3,19-3.17,27.21-6.32a47.84,47.84,0,0,0,21.7-16.36A47.26,47.26,0,0,0,764,489.69c.94-14.91-4.59-28.78-10-39.05-11.4-21.52-32.07-44.9-56.2-65.95C650.05,343.08,576.37,300,504.8,300c-38.77,0-67.67,4.92-93.6,19.62-23.39,13.27-41.88,33.41-61.93,55.27l-2.36,2.56-5,5.47c23.1,5.82,44.73,15.92,64.57,28.31C423,393.45,433,383.92,444.08,377.62c11.65-6.6,27.32-10.95,60.72-10.95,48.09,0,106.53,31.11,149.14,68.26,15.83,13.82,27.7,26.95,35.19,37.48-5.92.68-12.66,1.28-20.1,1.8-21.65,1.53-47.59,2.34-72.84,2.71s-49.27.33-67.11.18c-8.91-.08-16.23-.18-21.31-.26l-5.87-.1-1.51,0h-.5Z"/></g></g></svg>